<svg id="Laag_1" data-name="Laag 1" xmlns="http://www.w3.org/2000/svg" viewBox="0 0 1452.5 728.08"><defs><style>.cls-1{fill:#efd196;}.cls-2{fill:none;stroke:#000;stroke-miterlimit:10;stroke-width:4px;opacity:0.2;}</style></defs><title>farfalle</title><path class="cls-1" d="M2279.47,1043.5c-129,138.08-451-204.59-633.78-221.27C1610.43,819,1538,812,1488.16,831.57c-226.39,88.92-556.42,324.07-656.66,211.93-11.08-12.4,18.49-47.34,18.23-64-0.23-15-19.15-42.17-18.23-57.14,0.86-13.89,23.31-36.65,23.3-50.56S832,835.18,831.5,821.27c-0.44-12.5,17.86-34.31,17.69-46.82C849,762.81,830.86,743,831.5,731.38c0.61-11.18,22.11-28.15,21.43-39.33-0.56-9.19-21.41-20.75-21.43-30,0-10.9,24.51-24.71,25.18-35.58,0.81-13.27-25.07-33.53-25.18-46.82-0.11-13.7,25.29-35,25.18-48.69-0.11-13.29-24.22-33.56-25.18-46.82-0.94-12.92,17.38-35.75,17.69-48.69,0.35-14.91-27.56-45.8-17.69-57,101-114.24,447.7,151.63,653.24,253.25,42.39,21,127.48,15.24,158.07,8,243.58-57.61,498.12-392.86,636.65-261.25,10.63,10.1-23.75,39.38-22.88,54,0.68,11.51,22.18,28.53,22.88,40,0.84,13.75-22.09,37.06-21.34,50.82,0.6,11,21.41,27.5,21.34,38.5-0.1,14.63-29.83,36.21-29,50.82,0.67,12.35,28.23,27.7,29,40,0.95,14.41-26.76,36.39-27.5,50.82-0.92,17.9,29.06,48.36,27.5,66.22s-40,42.34-38.28,60.06c1.35,13.78,37.36,26.22,38.28,40,1,14.26-34.16,31.92-33.66,46.2,0.45,13.07,32.67,27,33.66,40,0.89,11.69-24,28.32-24.42,40C2254.57,1009.48,2288.56,1033.77,2279.47,1043.5Z" transform="translate(-829.01 -348.13)"/><path class="cls-2" d="M1489.49,688.34s66.35,10.52,88.67,10.4,88.67-11.4,88.67-11.4" transform="translate(-829.01 -348.13)"/><path class="cls-2" d="M1666.83,778.57s-66.35-10.52-88.67-10.4-88.67,11.4-88.67,11.4" transform="translate(-829.01 -348.13)"/></svg>